<?xml version="1.0" encoding="UTF-8" standalone="no"?>
<svg
   width="2613"
   height="800"
   viewBox="0 0 2613 800"
   fill="none"
   version="1.1"
   id="svg858"
   sodipodi:docname="robotics-logo.svg"
   inkscape:version="1.1.2 (0a00cf5339, 2022-02-04, custom)"
   xmlns:inkscape="http://www.inkscape.org/namespaces/inkscape"
   xmlns:sodipodi="http://sodipodi.sourceforge.net/DTD/sodipodi-0.dtd"
   xmlns="http://www.w3.org/2000/svg"
   xmlns:svg="http://www.w3.org/2000/svg">
  <sodipodi:namedview
     id="namedview860"
     pagecolor="#ffffff"
     bordercolor="#666666"
     borderopacity="1.0"
     inkscape:pageshadow="2"
     inkscape:pageopacity="0.0"
     inkscape:pagecheckerboard="0"
     showgrid="false"
     inkscape:zoom="0.43360122"
     inkscape:cx="1306.5"
     inkscape:cy="398.98411"
     inkscape:window-width="1920"
     inkscape:window-height="1017"
     inkscape:window-x="-8"
     inkscape:window-y="-8"
     inkscape:window-maximized="1"
     inkscape:current-layer="svg858" />
  <g
     clip-path="url(#clip0_0_1)"
     id="g849">
    <path
       d="M2296.39 430.634L2252.18 425.344C2247.63 408.465 2241 392.541 2232.49 377.753L2259.92 342.809C2264.15 337.415 2263.66 329.105 2258.81 324.279L2213.23 278.676C2208.41 273.85 2200.1 273.36 2194.73 277.54L2159.73 305.078C2145 296.561 2129.07 289.928 2112.22 285.438L2106.95 241.177C2106.15 234.415 2099.91 228.866 2093.1 228.866H2028.6C2021.79 228.866 2015.54 234.415 2014.74 241.177L2009.43 285.412C1992.57 289.903 1976.62 296.561 1961.89 305.078L1926.87 277.592C1921.52 273.385 1913.19 273.85 1908.39 278.676L1862.78 324.331C1857.96 329.157 1857.47 337.467 1861.67 342.835L1889.16 377.779C1880.62 392.541 1874.04 408.491 1869.52 425.369L1825.31 430.66C1818.55 431.46 1813 437.68 1813 444.545V509.013C1813 515.853 1818.55 522.072 1825.31 522.847L1869.55 528.189C1874.06 544.99 1880.67 560.939 1889.19 575.702L1861.73 610.646C1857.52 616.066 1858.01 624.376 1862.84 629.202L1908.39 674.805C1913.19 679.657 1921.52 680.147 1926.87 675.966L1961.89 648.403C1976.62 656.92 1992.57 663.578 2009.43 668.069L2014.74 712.304C2015.54 719.066 2021.79 724.615 2028.6 724.615H2093.1C2099.91 724.615 2106.15 719.066 2106.95 712.304L2112.27 668.043C2129.12 663.553 2145.07 656.894 2159.84 648.377L2194.83 675.837C2200.2 680.018 2208.51 679.579 2213.31 674.779L2258.91 629.099C2263.74 624.247 2264.25 615.937 2260.02 610.594L2232.54 575.65C2241.08 560.888 2247.66 544.938 2252.18 528.06L2296.44 522.769C2303.23 521.969 2308.75 515.775 2308.75 508.91V444.442C2308.75 437.628 2303.2 431.46 2296.39 430.634ZM2060.89 600.581C1992.47 600.581 1936.98 545.145 1936.98 476.676C1936.98 408.233 1992.47 352.745 2060.89 352.745C2129.33 352.745 2184.79 408.207 2184.79 476.676C2184.82 545.145 2129.33 600.581 2060.89 600.581Z"
       fill="black"
       id="path845" />
    <path
       d="M2603.79 227.215L2570.47 223.266C2567.06 210.568 2562.11 198.516 2555.65 187.393L2576.38 161.068C2579.55 157.068 2579.14 150.771 2575.53 147.132L2541.2 112.833C2537.59 109.168 2531.32 108.807 2527.27 111.981L2500.92 132.705C2489.82 126.279 2477.79 121.324 2465.17 117.969L2461.15 84.6764C2460.58 79.5664 2455.85 75.4113 2450.77 75.4113H2402.2C2397.06 75.4113 2392.37 79.5664 2391.77 84.6764L2387.8 117.969C2375.1 121.324 2363.1 126.305 2351.98 132.731L2325.63 112.033C2321.6 108.884 2315.33 109.272 2311.72 112.833L2277.37 147.21C2273.7 150.848 2273.37 157.094 2276.54 161.12L2297.26 187.47C2290.81 198.568 2285.88 210.594 2282.45 223.292L2249.16 227.266C2244.05 227.86 2239.89 232.583 2239.89 237.719V286.264C2239.89 291.348 2244.07 296.097 2249.16 296.639L2282.42 300.69C2285.86 313.336 2290.84 325.337 2297.24 336.46L2276.51 362.785C2273.37 366.811 2273.75 373.108 2277.37 376.721L2311.64 411.02C2315.28 414.711 2321.52 415.046 2325.55 411.872L2351.9 391.122C2363 397.548 2375.02 402.529 2387.7 405.884L2391.7 439.228C2392.26 444.261 2397.01 448.416 2402.12 448.416H2450.67C2455.78 448.416 2460.47 444.261 2461.07 439.228L2465.04 405.884C2477.74 402.529 2489.74 397.548 2500.84 391.122L2527.19 411.82C2531.24 414.995 2537.49 414.633 2541.12 411.02L2575.45 376.644C2579.09 373.056 2579.45 366.785 2576.28 362.759L2555.58 336.409C2562.03 325.337 2566.93 313.311 2570.34 300.639L2603.66 296.664C2608.77 296.019 2612.92 291.374 2612.92 286.212V237.693C2613.03 232.505 2608.84 227.86 2603.79 227.215ZM2426.48 355.223C2374.92 355.223 2333.19 313.465 2333.19 261.952C2333.19 210.414 2374.97 168.682 2426.48 168.682C2477.95 168.682 2519.73 210.414 2519.73 261.952C2519.73 313.44 2477.97 355.223 2426.48 355.223Z"
       fill="black"
       id="path847" />
  </g>
  <path
     d="M95.05 401H93.65H95.05L113.6 324.35L128.65 268H172.4L188.15 513H142.3L135.65 379.3H133.9L108.7 478H80L54.8 379.3H53.05L46.4 513H0.55L16.3 268H60.05L75.1 324.35L93.65 401H95.05ZM260.097 310V397.5H291.247C304.08 387 310.497 371.6 310.497 351.3C310.497 342.667 308.747 334.5 305.247 326.8C301.98 319.1 298.014 313.5 293.347 310H260.097ZM212.847 513V268H307.697C323.564 275 336.047 285.733 345.147 300.2C354.48 314.667 359.147 331.583 359.147 350.95C359.147 370.083 354.364 387.817 344.797 404.15C335.23 420.483 321.114 432.033 302.447 438.8H260.097V513H212.847ZM396.835 268H480.835V310H413.635L412.585 312.1L468.585 414.3C480.018 434.833 485.735 450.467 485.735 461.2C485.735 484.767 477.918 502.033 462.285 513H369.535V472.4H441.985L443.035 470.3L380.035 357.25C370.935 340.917 366.385 327.617 366.385 317.35C366.385 293.083 376.535 276.633 396.835 268ZM495.428 472.4H531.478C535.678 467.033 538.361 460.85 539.528 453.85C540.695 446.617 541.278 432.15 541.278 410.45V268H589.228V394C589.228 409.633 588.878 421.767 588.178 430.4C587.711 439.033 586.311 448.833 583.978 459.8C579.545 480.567 568.461 498.3 550.728 513H495.428V472.4ZM669.843 268H762.943C777.643 272.9 790.126 282 800.393 295.3C810.893 308.367 816.143 324.467 816.143 343.6C816.143 374.867 803.776 397.85 779.043 412.55L814.393 513H765.393L735.643 423.75H717.093V513H669.843V268ZM717.093 310V384.55H747.193C751.16 383.617 755.476 379.65 760.143 372.65C765.043 365.417 767.493 357.017 767.493 347.45C767.493 337.883 765.393 329.483 761.193 322.25C757.226 315.017 753.26 310.933 749.293 310H717.093ZM933.688 513H857.388C834.055 491.3 822.388 461.667 822.388 424.1C822.388 405.2 824.955 388.75 830.088 374.75C835.455 360.75 843.855 347.217 855.288 334.15H937.188C949.322 348.15 957.605 361.8 962.038 375.1C966.472 388.167 968.688 404.5 968.688 424.1C968.688 461.667 957.022 491.3 933.688 513ZM882.238 476.25H908.838C917.238 459.917 921.438 441.367 921.438 420.6C921.438 399.833 917.122 383.267 908.488 370.9H882.238C873.838 382.8 869.638 399.717 869.638 421.65C869.638 443.35 873.838 461.55 882.238 476.25ZM990.243 268H1036.44V346.75C1041.58 342.083 1046.36 338.817 1050.79 336.95C1055.46 335.083 1062.34 334.15 1071.44 334.15H1099.44C1109.24 343.717 1116.94 356.083 1122.54 371.25C1128.14 386.417 1130.94 403.1 1130.94 421.3C1130.94 460.267 1119.28 490.833 1095.94 513H1062.69C1051.26 513 1041.69 508.683 1033.99 500.05L1027.69 513H990.243V268ZM1036.79 476.25H1070.39C1079.03 461.55 1083.34 443.7 1083.34 422.7C1083.34 401.7 1078.91 384.433 1070.04 370.9H1036.79V476.25ZM1258.91 513H1182.61C1159.28 491.3 1147.61 461.667 1147.61 424.1C1147.61 405.2 1150.18 388.75 1155.31 374.75C1160.68 360.75 1169.08 347.217 1180.51 334.15H1262.41C1274.55 348.15 1282.83 361.8 1287.26 375.1C1291.7 388.167 1293.91 404.5 1293.91 424.1C1293.91 461.667 1282.25 491.3 1258.91 513ZM1207.46 476.25H1234.06C1242.46 459.917 1246.66 441.367 1246.66 420.6C1246.66 399.833 1242.35 383.267 1233.71 370.9H1207.46C1199.06 382.8 1194.86 399.717 1194.86 421.65C1194.86 443.35 1199.06 461.55 1207.46 476.25ZM1322.55 434.95V370.9H1298.4V334.15H1322.55V285.5H1369.1V334.15H1397.8V370.9H1369.1V446.15C1369.1 460.383 1371.55 470.417 1376.45 476.25H1397.8V513H1348.1C1335.74 501.567 1328.27 489.2 1325.7 475.9C1323.6 464.7 1322.55 451.05 1322.55 434.95ZM1417.59 513V334.15H1463.79V513H1417.59ZM1417.59 268H1463.79V315.25H1417.59V268ZM1533.71 422C1533.71 431.8 1535.22 441.833 1538.26 452.1C1541.29 462.133 1545.49 470.183 1550.86 476.25H1603.36V513H1526.71C1499.17 491.067 1485.41 460.733 1485.41 422C1485.41 383.267 1500.11 353.983 1529.51 334.15H1603.36V370.9H1550.86C1539.42 382.8 1533.71 399.833 1533.71 422ZM1640.68 334.15H1718.03V370.9H1663.43L1696.68 420.25C1711.62 441.483 1719.9 456.067 1721.53 464C1722.47 467.733 1722.93 471.583 1722.93 475.55C1722.93 492.117 1716.75 504.6 1704.38 513H1615.13V476.25H1679.18L1641.73 421.3C1640.1 418.733 1637.53 415.117 1634.03 410.45C1630.77 405.783 1628.2 402.05 1626.33 399.25C1624.47 396.217 1623.18 394 1622.48 392.6C1621.78 391.2 1620.85 389.45 1619.68 387.35C1618.52 385.017 1617.7 383.033 1617.23 381.4C1616.3 376.967 1615.83 373.35 1615.83 370.55C1615.83 353.517 1624.12 341.383 1640.68 334.15Z"
     fill="black"
     id="path851" />
  <defs
     id="defs856">
    <clipPath
       id="clip0_0_1">
      <rect
         width="800"
         height="800"
         fill="white"
         transform="translate(1813)"
         id="rect853" />
    </clipPath>
  </defs>
</svg>
